<svg width="25" height="24" viewBox="0 0 25 24" xmlns="http://www.w3.org/2000/svg">
  <g clip-path="url(#clip0_801_2413)">
    <path
      d="M21.2433 7.71477L20.5 8.38374V8.38374L21.2433 7.71477ZM17.2979 3.33104L16.5546 4L16.5546 4L17.2979 3.33104ZM4.5 22H20.5V20H4.5V22ZM22.5 20V8.38374H20.5V20H22.5ZM21.9866 7.04581L18.0412 2.66207L16.5546 4L20.5 8.38374L21.9866 7.04581ZM16.5546 2H4.5V4H16.5546V2ZM2.5 4V20H4.5V4H2.5ZM4.5 2C3.39543 2 2.5 2.89543 2.5 4H4.5H4.5V2ZM18.0412 2.66207C17.6619 2.24064 17.1216 2 16.5546 2V4L16.5546 4L18.0412 2.66207ZM22.5 8.38374C22.5 7.88965 22.3171 7.41305 21.9866 7.04581L20.5 8.38374V8.38374H22.5ZM20.5 22C21.6046 22 22.5 21.1046 22.5 20H20.5V22ZM4.5 20H2.5C2.5 21.1046 3.39543 22 4.5 22V20Z" />
    <path
      d="M17.5 21V22C18.0523 22 18.5 21.5523 18.5 21H17.5ZM7.5 21H6.5C6.5 21.5523 6.94772 22 7.5 22V21ZM8.5 15H16.5V13H8.5V15ZM16.5 15V21H18.5V15H16.5ZM17.5 20H7.5V22H17.5V20ZM8.5 21V15H6.5V21H8.5ZM16.5 15H18.5C18.5 13.8954 17.6046 13 16.5 13V15ZM8.5 13C7.39543 13 6.5 13.8954 6.5 15H8.5V15V13Z" />
    <path
      d="M15.5 8C16.0523 8 16.5 7.55228 16.5 7C16.5 6.44772 16.0523 6 15.5 6V8ZM9.5 6C8.94772 6 8.5 6.44772 8.5 7C8.5 7.55228 8.94772 8 9.5 8V6ZM15.5 6H9.5V8H15.5V6Z" />
  </g>
  <defs>
    <clipPath id="clip0_801_2413">
      <rect width="24" height="24" transform="translate(0.5)" />
    </clipPath>
  </defs>
</svg>